<svg width="24" height="24" viewBox="0 0 24 24" fill="none" xmlns="http://www.w3.org/2000/svg">
<path d="M18.9106 18.4154C15.837 22.3907 9.88684 23.3457 5.54565 20.5892L7.50493 18.0553C7.1415 17.7999 7.06331 17.7036 6.75 17.412M18.0256 7.03537C17.6812 6.70386 17.3048 6.393 16.8973 6.10663L18.8565 3.57276C14.5152 0.816315 8.56523 1.77127 5.49138 5.74663C4.62215 6.87079 4.24192 7.88662 4 9.16199M20.5 14.412C20.5 15.162 20.4699 15.318 20.2659 15.9141" stroke="#241F20" stroke-width="0.75" stroke-linecap="round"/>
<path d="M15.3102 14.0011L15.311 14.0003C15.318 13.9994 15.324 13.9994 15.3301 13.9985C15.324 13.9985 15.3171 13.9994 15.311 14.0003L15.3102 14.0011Z" fill="#FF5345"/>
<path d="M22.7922 10.6962C22.7768 10.6825 22.7598 10.6671 22.7421 10.651C22.599 10.5168 22.4924 10.3908 22.3801 10.2583C22.3227 10.1904 22.2629 10.1209 22.1967 10.0466C22.1829 10.0312 22.1684 10.0151 22.153 9.99891C22.0981 9.93831 22.0399 9.8761 22.0011 9.81388C21.9842 9.78641 21.9559 9.74035 21.9527 9.73066C21.9518 9.72742 21.9518 9.72419 21.9518 9.72015C21.9518 9.70238 21.9502 9.67491 21.9405 9.62319C21.9308 9.57552 21.9171 9.53028 21.9001 9.48745L21.9066 9.48341C21.8977 9.46725 21.8888 9.45109 21.8799 9.43493C21.8541 9.38726 21.8274 9.33797 21.7935 9.29353C21.7086 9.17234 21.6052 9.07699 21.5268 9.01397C21.6392 8.93479 21.6917 8.81036 21.6779 8.65926L21.6618 8.4815L21.5519 8.6229C21.5139 8.67057 21.4614 8.71501 21.4129 8.73844C21.3935 8.74814 21.3758 8.7538 21.3588 8.75622C21.2004 8.77884 21.1616 8.67623 21.1164 8.45242C21.1043 8.39182 21.0938 8.33607 21.0752 8.28597C21.0154 8.12276 20.9233 7.99025 20.8085 7.90298C20.7366 7.84804 20.6542 7.83107 20.5815 7.81572C20.5306 7.80522 20.4821 7.79471 20.449 7.7737C20.4312 7.7632 20.411 7.72118 20.3932 7.68402C20.3682 7.6315 20.3391 7.57332 20.2914 7.52808C20.1823 7.42384 20.066 7.40122 19.9456 7.38506C19.7848 7.36325 19.6305 7.38748 19.481 7.41334L19.4802 7.41253C19.4697 7.41496 19.4584 7.41657 19.4471 7.419C19.2879 7.44647 19.1376 7.47152 18.9865 7.44404C18.6787 7.38668 18.4169 7.49656 18.1947 7.60483C18.1551 7.62423 18.1155 7.64443 18.0751 7.66463C18.0064 7.69937 17.9378 7.73411 17.8683 7.76482C17.7551 7.81572 17.6735 7.82542 17.5693 7.79875C17.4441 7.76724 17.3382 7.76643 17.2267 7.76562C17.1984 7.76562 17.1694 7.76482 17.1395 7.76482C16.9463 7.76078 16.7759 7.80441 16.6038 7.85289C16.5601 7.86501 16.5197 7.88036 16.4809 7.89975C16.3468 7.96439 16.2531 8.06216 16.1715 8.1575C16.1319 8.20436 16.1012 8.25042 16.0721 8.29405C16.0155 8.3797 15.9695 8.44676 15.875 8.49766C15.8515 8.50978 15.8289 8.52271 15.8063 8.53483C15.7707 8.55988 15.7376 8.58654 15.7053 8.61401L15.7004 8.61482L15.6996 8.61805C15.6633 8.64957 15.6285 8.68189 15.5962 8.71663C15.5518 8.76268 15.5105 8.81197 15.4726 8.86288C15.4338 8.91378 15.399 8.96711 15.3667 9.02205C15.3352 9.0778 15.3053 9.13355 15.2787 9.19092C15.252 9.24909 15.2294 9.30808 15.2092 9.36787C15.1882 9.42766 15.1704 9.48907 15.1566 9.55048C15.1494 9.58118 15.1437 9.61188 15.1389 9.64339L15.1235 9.74035C15.1122 9.8058 15.1001 9.87044 15.0855 9.93508C15.0718 9.99972 15.0557 10.0644 15.0363 10.1282C14.9991 10.255 14.953 10.3803 14.8884 10.4974H14.7882C14.7947 10.4853 14.8011 10.4732 14.8076 10.4603C14.9126 10.2292 14.9652 9.97467 15.0072 9.72015L15.0225 9.62319C15.029 9.58926 15.0355 9.55613 15.0435 9.523C15.0597 9.45756 15.0791 9.39211 15.1025 9.32909C15.1251 9.26606 15.1534 9.20466 15.1841 9.14406C15.2148 9.08426 15.248 9.02609 15.2867 8.97034C15.3247 8.91459 15.3659 8.86126 15.4104 8.81116C15.4556 8.76107 15.5041 8.7142 15.555 8.67138C15.572 8.65765 15.5889 8.64472 15.6059 8.63179C15.6075 8.63098 15.6075 8.63017 15.6083 8.62937C15.597 8.63179 15.5857 8.63502 15.5736 8.63664C15.2391 8.69724 14.9102 8.78046 14.57 8.82732L14.5402 8.83136C14.284 8.86611 14.0271 8.90893 13.7782 8.94933C13.1948 9.04548 12.5921 9.14406 11.9853 9.15537C11.9263 9.15618 11.8673 9.15698 11.8083 9.15698C11.3413 9.15698 10.8662 9.12547 10.4065 9.09558C9.94511 9.06487 9.46759 9.03336 8.99653 9.03336C8.83736 9.03336 8.68384 9.0374 8.5384 9.04386L8.52628 9.04467C7.97038 9.07457 7.47428 9.23697 6.88283 9.44624C6.35198 9.63451 5.9294 9.71773 5.37512 9.74358L5.20463 9.75166C3.90458 9.81065 2.67562 9.8664 1.6212 10.7342C1.32143 10.9814 1.12428 11.3095 1.05156 11.6836C0.957028 12.1732 0.99258 12.6006 1.15741 12.9545C1.33598 13.3375 1.65836 13.6155 2.11649 13.7803C2.12457 13.8078 2.13023 13.8668 2.13427 13.9007C2.14073 13.9621 2.14477 13.9952 2.15609 14.0195C2.2587 14.2465 2.40172 14.3071 2.61745 14.3984C2.79117 14.4719 2.97135 14.5075 3.16769 14.5075C3.44402 14.5075 3.7244 14.4356 3.99426 14.3661L4.10415 14.3378L4.03062 14.2506C3.78176 13.9589 3.56199 13.7512 3.35757 13.6131C3.05538 13.4086 2.8453 13.3909 2.52776 13.365C2.49706 13.3626 2.46474 13.3593 2.4308 13.3569C2.1779 13.3351 1.76987 12.9166 1.64786 12.6661C1.4798 12.3219 1.55575 11.8549 1.69796 11.5664C2.08579 10.7762 3.10951 10.5322 3.5329 10.4635C3.67834 10.4401 4.40068 10.4328 5.039 10.4263C5.70559 10.4191 6.04817 10.415 6.22836 10.4053C6.13705 10.5467 6.06595 10.697 5.99566 10.8861C5.94556 11.021 5.8785 11.1317 5.80659 11.2489C5.78962 11.2772 5.77184 11.3062 5.75407 11.3353C5.62964 11.5438 5.49309 11.7498 5.36058 11.9494L5.32018 12.0108C5.20383 12.1869 5.13353 12.397 5.06485 12.5998C5.02284 12.7235 4.98405 12.8414 4.93476 12.9513C4.77721 13.306 4.58086 13.7448 4.63904 14.173C4.5841 14.2158 4.50491 14.2441 4.42088 14.274C4.2609 14.3314 4.0791 14.3968 4.02982 14.5899C4.00638 14.6788 4.04194 14.7838 4.07264 14.8776C4.08718 14.9204 4.10011 14.9608 4.10577 14.9923C4.12839 15.1272 4.11789 15.263 4.09526 15.4254C4.0888 15.4714 4.08153 15.5159 4.07425 15.5587C4.03709 15.7777 4.00234 15.9845 4.16717 16.2027C4.2908 16.3659 4.32554 16.538 4.36271 16.7206C4.38533 16.8329 4.40876 16.9484 4.4532 17.0696C4.55582 17.3468 4.8879 17.3492 5.1303 17.3508C5.14727 17.3508 5.16343 17.3508 5.17878 17.3516C5.32583 17.3532 5.46723 17.3355 5.59651 17.3161C5.61671 17.3128 5.64256 17.3104 5.67084 17.3072C5.79689 17.2926 5.95445 17.2757 6.03929 17.207C6.1217 17.1399 6.16614 17.0357 6.16291 16.9129C6.15968 16.7529 6.07726 16.5824 5.96253 16.4976C5.85587 16.4184 5.70882 16.3101 5.54803 16.298C5.46561 16.2907 5.3929 16.319 5.32987 16.3433C5.28543 16.3602 5.24261 16.3772 5.20302 16.3788C5.16181 16.2463 5.19736 16.1122 5.23453 15.9716C5.24099 15.9473 5.24746 15.9231 5.25392 15.8989C5.26846 15.8383 5.27897 15.7817 5.28947 15.7268C5.31129 15.608 5.33068 15.5054 5.38805 15.3955C5.46804 15.242 5.5448 15.107 5.6765 15.0157C5.75326 14.9632 5.85103 14.9236 5.94556 14.8856C5.94718 14.8856 5.94879 14.8848 5.95122 14.884C6.0199 14.8687 6.09019 14.8525 6.15806 14.8202C6.314 14.7459 6.5055 14.5673 6.5968 14.3774C6.64932 14.3144 6.70265 14.2554 6.76648 14.2021C6.87152 14.114 7.00807 14.0938 7.1527 14.0728C7.27551 14.055 7.40317 14.0364 7.52195 13.975C7.58659 13.9411 7.62537 13.891 7.65608 13.8506C7.68516 13.8126 7.69809 13.7981 7.71102 13.7965L7.72718 13.7973C7.73364 13.7981 7.74011 13.8005 7.74899 13.8045C7.80475 13.828 7.85242 13.9282 7.8807 13.988L7.88878 14.0049C7.99382 14.2263 8.03502 14.4808 8.01886 14.8073C8.01563 14.8679 8.00432 14.9382 7.99139 15.0133C7.95746 15.221 7.91948 15.4561 8.03341 15.633C8.13602 15.7914 8.32024 15.9465 8.48346 16.0839C8.54002 16.1316 8.59334 16.176 8.63859 16.2172C8.84786 16.4063 9.04016 16.5743 9.28418 16.7093C9.30438 16.7198 9.32458 16.7311 9.34316 16.7416C9.45062 16.7998 9.54354 16.8499 9.62434 16.9395C9.64939 16.9678 9.67039 16.9937 9.68898 17.0163C9.75927 17.1036 9.80937 17.1666 9.97986 17.1941C10.0437 17.2038 10.1075 17.2086 10.1786 17.2086C10.3394 17.2086 10.4962 17.1819 10.6481 17.1561C10.7014 17.1472 10.7523 17.1391 10.8032 17.131C10.846 17.1246 10.9074 17.123 10.9729 17.1213C11.2112 17.1157 11.5377 17.1076 11.5562 16.845C11.5659 16.7077 11.4561 16.5347 11.3841 16.458C11.2823 16.3489 11.1846 16.3344 11.1038 16.3344C11.0698 16.3344 11.0359 16.3376 10.9995 16.34C10.9745 16.3424 10.9478 16.3441 10.9195 16.3457C10.8921 16.3465 10.8646 16.3481 10.8396 16.3481C10.5802 16.3481 10.4218 16.2818 10.2134 16.0855C10.16 16.0354 10.1011 15.9885 10.038 15.9384C9.86835 15.8035 9.69383 15.6645 9.65585 15.4747C9.61707 15.2799 9.70675 15.1402 9.81179 14.9786C9.84573 14.926 9.88047 14.8719 9.91118 14.8145C10.0275 14.5996 10.0728 14.3548 10.1156 14.1172C10.1285 14.0469 10.1406 13.9799 10.1544 13.9144C10.1827 13.7811 10.2271 13.6809 10.3022 13.5799C10.3273 13.5468 10.3499 13.5112 10.3725 13.4765C10.4485 13.3585 10.5147 13.2567 10.6392 13.2543H10.6473C10.7814 13.2543 10.9365 13.3198 11.086 13.3836C11.1522 13.4119 11.2153 13.4385 11.2759 13.4595C11.3615 13.4886 11.452 13.5258 11.5474 13.5654C11.7259 13.6397 11.911 13.7157 12.0847 13.7464C12.1744 13.7617 12.2649 13.7633 12.3521 13.7641C12.3861 13.7641 12.42 13.765 12.4531 13.7666C12.546 13.7706 12.6503 13.7738 12.7545 13.7738C12.8959 13.7738 13.0139 13.7666 13.1165 13.7512C13.1819 13.7415 13.2272 13.7367 13.2635 13.7367C13.312 13.7367 13.3435 13.7448 13.3573 13.7617C13.3694 13.7763 13.3855 13.8183 13.3621 13.9371C13.3282 14.1051 13.2821 14.2683 13.2361 14.4275C13.1585 14.699 13.0777 14.9802 13.0656 15.2824C13.0583 15.4617 12.9969 15.5999 12.9331 15.747C12.8919 15.8415 12.849 15.9393 12.8167 16.0532C12.8038 16.0992 12.7456 16.3352 12.8692 16.4628C12.9177 16.5129 12.967 16.5347 13.0025 16.5501C13.0106 16.5541 13.0203 16.5582 13.0276 16.5614C13.0268 16.5711 13.0227 16.5929 13.0042 16.6382C12.9937 16.664 12.9783 16.6907 12.9621 16.7182C12.9169 16.7957 12.8603 16.8927 12.9007 17.0171C12.9444 17.1553 13.1294 17.2539 13.2361 17.2999C13.3702 17.3581 13.5391 17.388 13.7378 17.388C13.977 17.388 14.2073 17.346 14.3584 17.3112C14.4901 17.2805 14.6533 17.2425 14.7114 17.1205C14.7454 17.0502 14.7389 16.9678 14.6912 16.8684C14.6452 16.7715 14.5313 16.727 14.4472 16.6947L14.427 16.6866C14.3826 16.6697 14.3365 16.6519 14.2873 16.6406C14.2743 16.6374 14.2614 16.6366 14.2501 16.6349C14.2404 16.6341 14.2275 16.6325 14.221 16.6301C14.2178 16.6236 14.2145 16.6131 14.2105 16.6026C14.2032 16.5776 14.1919 16.5436 14.1652 16.5129C14.1386 16.4822 14.0836 16.4289 14.0109 16.4127C13.9923 16.4087 13.9697 16.4103 13.9487 16.4127C13.9471 16.382 13.9495 16.3198 13.9713 16.1978C13.9899 16.0863 14.0327 15.9708 14.0998 15.8431C14.1871 15.6783 14.301 15.5239 14.4117 15.3745C14.4545 15.3163 14.4998 15.2549 14.5426 15.1943C14.6428 15.0521 14.726 14.8986 14.806 14.7491C14.8835 14.6053 14.9643 14.4558 15.0589 14.3217C15.0678 14.3095 15.0775 14.2942 15.0888 14.2772C15.1259 14.2223 15.21 14.097 15.2811 14.0356C15.2851 14.0308 15.2892 14.0259 15.294 14.0211L15.2916 14.0203C15.3118 14.0001 15.3263 13.9863 15.3384 13.9758L15.336 13.975C15.3869 13.9266 15.4451 13.8862 15.5033 13.8498C15.6204 13.7771 15.7441 13.7221 15.8483 13.6502C15.9549 13.5775 16.0511 13.4927 16.1319 13.3917C16.2135 13.2907 16.2781 13.1743 16.3452 13.0547C16.3242 13.1897 16.2814 13.3238 16.2078 13.445C16.1343 13.5662 16.0309 13.6688 15.9145 13.748C15.8556 13.7884 15.7925 13.8199 15.7311 13.8498C15.6689 13.8781 15.6075 13.9047 15.5469 13.9322C15.4952 13.9556 15.4451 13.9791 15.3958 14.0065L15.395 14.0073L15.3942 14.0082C15.437 14.0235 15.475 14.0663 15.5251 14.1285C15.5501 14.1593 15.576 14.1916 15.6051 14.219C15.8071 14.4105 16.039 14.5043 16.3161 14.5059C16.3549 14.5059 16.3945 14.501 16.4333 14.4962C16.4397 14.4954 16.4462 14.4946 16.4527 14.4938C16.4712 14.5002 16.4898 14.5083 16.5076 14.5164C16.607 14.5624 16.6862 14.6311 16.754 14.7119L16.7549 14.7127C16.7662 14.7426 16.7767 14.7709 16.7896 14.7968C16.9181 15.0739 17.1007 15.3357 17.2453 15.532C17.3148 15.6274 17.4029 15.7001 17.4869 15.7704C17.5443 15.8189 17.5992 15.8641 17.6477 15.9158C17.7115 15.9829 17.7382 16.0499 17.7656 16.1219C17.785 16.1711 17.8052 16.2229 17.8376 16.2762C17.9079 16.3909 18.0202 16.4507 18.1284 16.5089C18.2432 16.5703 18.3417 16.6236 18.3805 16.7327C18.3983 16.782 18.4088 16.828 18.4201 16.8725C18.4581 17.0244 18.4945 17.1682 18.7425 17.2304C18.8661 17.2619 19.0172 17.2644 19.1627 17.2668C19.2338 17.2684 19.3016 17.2692 19.3614 17.2741L19.4026 17.2773C19.4737 17.2829 19.561 17.2902 19.6531 17.2902C19.881 17.2902 20.0296 17.2434 20.1088 17.148C20.1654 17.0793 20.1832 16.9905 20.1621 16.8838C20.1484 16.8143 20.1064 16.744 20.0676 16.6826C20.0555 16.6632 20.0442 16.6446 20.0361 16.6285C20.0143 16.5881 20.003 16.559 19.9941 16.5364C19.9561 16.4402 19.9286 16.4257 19.7735 16.3772C19.7533 16.3707 19.7178 16.3667 19.62 16.3554C19.5392 16.3457 19.3824 16.3279 19.3162 16.3109C19.3065 16.1146 19.1821 15.9304 19.0617 15.7526C18.9647 15.6088 18.8645 15.4601 18.8354 15.3171C18.8128 15.2104 18.8007 15.0981 18.7878 14.9899C18.7724 14.8525 18.7554 14.7111 18.7215 14.5754C18.7134 14.543 18.7062 14.5123 18.6989 14.4816C18.6843 14.4897 18.6698 14.4986 18.6561 14.5059C18.5914 14.5414 18.5252 14.5729 18.4573 14.6012C18.4234 14.615 18.3886 14.6287 18.3523 14.6392C18.3167 14.6505 18.2795 14.6594 18.2383 14.661L18.1608 14.6642L18.2165 14.6085C18.2957 14.5285 18.3506 14.4283 18.3773 14.3209C18.404 14.2126 18.4064 14.0987 18.3902 13.988C18.3741 13.8765 18.3401 13.7674 18.2965 13.6631C18.2521 13.5581 18.1963 13.4587 18.1301 13.3674C18.0969 13.3222 18.0606 13.2785 18.0226 13.2381C17.983 13.1977 17.9418 13.1573 17.8998 13.1186C17.7592 12.9909 17.7075 12.9578 17.6307 12.9012C17.6049 12.8818 17.5774 12.8632 17.5507 12.8438H17.7463C17.8246 12.9044 17.9022 12.9667 17.9765 13.0345C18.021 13.0749 18.0638 13.1161 18.1042 13.1614C18.1462 13.2066 18.1834 13.2551 18.2189 13.3052C18.2884 13.4054 18.3458 13.5129 18.3902 13.6252C18.4347 13.7375 18.4662 13.8563 18.4791 13.9775C18.492 14.0987 18.4872 14.2239 18.4516 14.3427C18.425 14.4332 18.3789 14.5188 18.3183 14.5915C18.3248 14.5899 18.3312 14.5891 18.3377 14.5875C18.3716 14.5794 18.4064 14.5689 18.4403 14.5568C18.5082 14.5342 18.5753 14.5059 18.6399 14.476C18.6552 14.4687 18.6698 14.4614 18.6851 14.4542C18.69 14.4517 18.6973 14.4445 18.7021 14.4412L18.6989 14.4816C18.7013 14.4558 18.7021 14.4453 18.7021 14.4412C18.728 14.4275 18.7554 14.4146 18.7805 14.3984C18.8015 14.379 18.8241 14.3604 18.8475 14.3411C18.9049 14.2926 18.9647 14.2417 19.014 14.1859C19.1077 14.0785 19.1489 13.9443 19.1885 13.8142C19.2192 13.7149 19.2475 13.6211 19.2976 13.5436C19.3024 13.5363 19.3073 13.5298 19.3113 13.5242H19.3105C19.3113 13.5209 19.317 13.5121 19.3178 13.5088C19.334 13.4426 19.3437 13.3747 19.3461 13.3068C19.3517 13.1719 19.3348 13.0337 19.2855 12.9101C19.2612 12.8495 19.2265 12.7905 19.1909 12.7331C19.1546 12.6766 19.115 12.6208 19.073 12.5683C18.9881 12.4617 18.8952 12.3623 18.7983 12.2653C18.7514 12.2193 18.7037 12.174 18.6552 12.1296V11.9963C18.7272 12.0617 18.7983 12.1296 18.8645 12.2015C18.9599 12.3033 19.052 12.4075 19.1344 12.5215C19.1756 12.578 19.2144 12.637 19.2491 12.6976C19.2661 12.7283 19.2831 12.759 19.2984 12.7913C19.3138 12.822 19.3283 12.856 19.3396 12.8899C19.3841 13.0264 19.3937 13.1703 19.3784 13.3092C19.3695 13.3828 19.3542 13.4555 19.3299 13.525H19.3283H19.3299C19.3299 13.5573 19.3299 13.5912 19.3299 13.6179C19.3283 13.7132 19.3275 13.7965 19.3461 13.8482L19.3816 13.9435L19.4592 13.8781C19.523 13.8247 19.5917 13.7536 19.6572 13.6858C19.6976 13.6438 19.7396 13.6001 19.7792 13.5621C19.8672 13.4773 19.9884 13.3173 20.0442 13.1703C20.0927 13.2236 20.1234 13.2947 20.1573 13.3731C20.2034 13.4805 20.2518 13.592 20.3553 13.6712L20.4765 13.7641L20.4692 13.6122C20.4692 13.6066 20.4692 13.6009 20.47 13.5953C20.4991 13.5355 20.5419 13.491 20.588 13.4506C20.6106 13.4345 20.6356 13.4175 20.6639 13.3997C20.718 13.3642 20.7746 13.327 20.8166 13.285C20.9798 13.1178 20.9709 13.0176 20.9378 12.8859C20.9297 12.8447 20.9217 12.8043 20.912 12.7639L20.9112 12.7647C20.8901 12.6669 20.857 12.5635 20.8158 12.4746C20.7584 12.3469 20.6696 12.2395 20.5613 12.153C20.4522 12.0666 20.3294 11.9906 20.2139 11.8961C20.1565 11.8484 20.1016 11.7951 20.0547 11.7329C20.0313 11.7013 20.0102 11.669 19.9917 11.6327C19.9747 11.5987 19.9602 11.5624 19.9472 11.526C19.923 11.4525 19.9084 11.3749 19.9052 11.2982C19.902 11.2206 19.9092 11.1438 19.9262 11.0695C19.9593 10.9216 20.0175 10.7851 20.0797 10.655C20.1411 10.5241 20.2074 10.3972 20.2583 10.2647C20.31 10.133 20.3439 9.99325 20.3415 9.84862C20.3706 9.99083 20.3512 10.1419 20.3132 10.2825C20.2745 10.4239 20.2179 10.5588 20.1646 10.6914C20.1129 10.8247 20.0595 10.9564 20.0361 11.0913C20.024 11.1584 20.0175 11.2262 20.0216 11.2925C20.0248 11.3588 20.0377 11.425 20.0595 11.4872C20.07 11.5187 20.083 11.5494 20.0983 11.5801C20.1121 11.6076 20.1298 11.6367 20.1492 11.6626C20.188 11.7167 20.2357 11.7644 20.2874 11.8104C20.3391 11.8565 20.3957 11.9001 20.4522 11.9437C20.5088 11.9874 20.567 12.0326 20.6219 12.0827C20.6776 12.1336 20.7285 12.1894 20.7706 12.2516C20.8126 12.3146 20.8465 12.3825 20.8699 12.4528C20.9023 12.5489 20.9176 12.6467 20.9249 12.7453C20.9411 12.7509 20.9653 12.7614 20.9992 12.78L21.0025 12.7816C21.0299 12.7962 21.0477 12.8075 21.059 12.818C21.0655 12.8253 21.0703 12.8333 21.076 12.8406C21.0816 12.8543 21.0833 12.8705 21.0857 12.8939C21.0881 12.9271 21.0921 12.9723 21.1091 13.0305L21.1245 13.0822L21.1778 13.0814C21.219 13.0806 21.2634 13.0846 21.3111 13.0895C21.4161 13.1 21.5244 13.1105 21.6149 13.0668C21.6739 13.0378 21.7167 12.9893 21.7434 12.923C21.7781 12.8341 21.7749 12.7412 21.7709 12.6523C21.7676 12.5659 21.7636 12.4835 21.7975 12.4164C21.8113 12.3889 21.825 12.3687 21.8379 12.3485C21.985 12.1304 21.7305 11.9656 21.547 11.8912C21.3709 12.1369 21.0154 12.0237 21.2206 11.7361C21.4315 11.6658 21.7385 11.6472 21.9607 11.6383C22.1304 11.6319 22.3057 11.6254 22.4391 11.5608C22.5554 11.5042 22.6257 11.4097 22.6467 11.2796C22.6847 11.278 22.7219 11.2683 22.7574 11.2513C22.8511 11.2052 22.919 11.1123 22.9344 11.0065C22.957 10.8416 22.881 10.7746 22.7922 10.6962ZM16.6353 9.42928C16.6442 9.35979 16.6555 9.29111 16.67 9.22243C16.6846 9.15375 16.7031 9.08507 16.729 9.01963C16.7791 8.88792 16.8518 8.76349 16.952 8.6633C17.0021 8.61401 17.057 8.57038 17.1185 8.53564C17.179 8.5009 17.2437 8.47504 17.3108 8.45807C17.1807 8.50413 17.0643 8.58331 16.9762 8.68593C16.8874 8.78854 16.8243 8.91055 16.7839 9.03902C16.7629 9.10285 16.7476 9.1691 16.7371 9.23536C16.7266 9.30242 16.7185 9.37029 16.7128 9.43816C16.7015 9.57391 16.6999 9.70965 16.7153 9.84297C16.7298 9.97629 16.7605 10.1072 16.809 10.2316C16.8453 10.3245 16.8914 10.4134 16.9455 10.4974H16.8195C16.7783 10.4239 16.7411 10.348 16.7128 10.268C16.6636 10.1338 16.6353 9.99325 16.6248 9.85186C16.6126 9.70965 16.6175 9.56906 16.6353 9.42928ZM16.2684 9.93427C16.2167 10.1185 16.1965 10.3076 16.1965 10.4966H16.1521C16.1642 10.3035 16.1998 10.1128 16.2684 9.93427ZM7.70779 13.7957C7.90736 13.3214 8.17723 13.0256 8.44952 12.8422H8.64102C8.02775 13.2082 7.70779 13.7957 7.70779 13.7957ZM10.1309 12.8422H10.2392C10.2659 12.8713 10.2925 12.9012 10.3208 12.9295C10.4372 13.0458 10.5632 13.1509 10.6949 13.2486C10.6941 13.2478 10.3976 13.1056 10.1309 12.8422ZM13.7241 12.8794C13.6974 12.9529 13.6853 13.0305 13.6796 13.1089C13.6683 13.2664 13.6805 13.4272 13.7007 13.5856C13.7031 13.605 13.7063 13.626 13.7087 13.6478C13.7112 13.6688 13.7136 13.6906 13.7152 13.7116C13.7168 13.7544 13.7176 13.7973 13.7152 13.8401C13.7103 13.9249 13.6982 14.009 13.6805 14.0906C13.6433 14.2546 13.5843 14.4073 13.5277 14.5632C13.5366 14.3968 13.5714 14.2352 13.5883 14.0752C13.598 13.996 13.6037 13.916 13.6037 13.8377C13.6037 13.7981 13.6029 13.7593 13.5988 13.7197C13.5972 13.7003 13.5956 13.6809 13.5932 13.6615C13.5908 13.6429 13.5875 13.6227 13.5843 13.6017C13.5625 13.4353 13.5584 13.2656 13.5883 13.0976C13.6045 13.0143 13.6287 12.9303 13.6724 12.8552C13.6748 12.8511 13.678 12.8471 13.6813 12.8422H13.7402C13.7346 12.8543 13.7289 12.8673 13.7241 12.8794ZM21.0663 9.24182C20.9936 9.28545 20.9144 9.31373 20.8344 9.33636C20.6752 9.37999 20.5136 9.39776 20.3698 9.44463C20.2979 9.46806 20.2308 9.49957 20.1743 9.5432C20.1169 9.58683 20.0708 9.6442 20.0353 9.71046C20.0006 9.77429 19.9795 9.84782 19.9844 9.92053C19.9868 9.9577 19.9973 9.99325 20.0151 10.0272C20.0321 10.0611 20.0579 10.0918 20.0886 10.1193C20.0515 10.1031 20.0159 10.0781 19.9876 10.0458C19.9593 10.0135 19.9391 9.97305 19.9278 9.93023C19.9165 9.88741 19.9141 9.84216 19.9198 9.79853C19.9246 9.75409 19.9359 9.71127 19.9529 9.67087C19.9844 9.59087 20.0369 9.51492 20.1048 9.45675C20.1387 9.42766 20.1759 9.40261 20.2147 9.38241C20.2535 9.36221 20.2939 9.34605 20.3343 9.33232C20.4983 9.2798 20.6615 9.27172 20.8158 9.24586C20.8934 9.23374 20.9693 9.21758 21.042 9.19011C21.1148 9.16345 21.1826 9.12305 21.244 9.06972C21.202 9.13921 21.1382 9.19738 21.0663 9.24182Z" fill="#FF5345"/>
<path d="M15.3947 14.0061C15.3886 14.0043 15.3825 14.0026 15.3748 14.0009C15.3825 14.0026 15.3895 14.0043 15.3947 14.0061Z" fill="#FF5345"/>
<path d="M7.88797 10.7185H7.86454L7.85807 10.7403L7.59225 11.5806L7.32642 10.7403L7.31914 10.7185H7.29652H6.96767H6.93616V10.75V12.6843V12.7159H6.96767H7.29894H7.33046V12.6843V11.9733L7.39914 12.2335L7.40479 12.2569H7.42903H7.75223H7.77647L7.78212 12.2335L7.85403 11.9685V12.6843V12.7159H7.88474H8.21682H8.24753V12.6843V10.75V10.7185H8.21682H7.88797Z" fill="white"/>
<path d="M9.13958 10.7185H8.64186C8.51178 10.7185 8.40674 10.8244 8.40674 10.9544V12.6843V12.7159H8.43825H8.76953H8.80023V12.6843V12.1406H8.97879V12.6843V12.7159H9.0095H9.34401H9.37552V12.6843V11.3382V11.0288V10.9544C9.37552 10.8244 9.26967 10.7185 9.13958 10.7185ZM8.97879 11.1128V11.7471H8.80023V11.1128H8.97879Z" fill="white"/>
<path d="M10.5333 10.7185H10.4905H10.1536H10.131L10.1237 10.7403L9.90553 11.4271V10.75V10.7185H9.87402H9.54274H9.51123V10.75V12.6843V12.7159H9.54274H9.87402H9.90553V12.6843V11.9862L10.1237 12.6827L10.1261 12.6924L10.1326 12.7159H10.1568H10.4905H10.5333L10.5204 12.6746L10.2142 11.7148L10.5204 10.7597L10.5333 10.7185Z" fill="white"/>
<path d="M10.5898 10.7185H10.5591V10.75V12.6843V12.7159H10.5898H11.4963H11.5279V12.6843V12.3498V12.3191H11.4963H10.9526V11.9111H11.3808H11.4115V11.8804V11.5483V11.5176H11.3808H10.9526V11.1128H11.4963H11.5279V11.0813V10.75V10.7185H11.4963H10.5898Z" fill="white"/>
<path d="M12.1209 10.7185H12.0894V10.75V12.6843V12.7159H12.1209H12.4521H12.4837V12.6843V10.75V10.7185H12.4521H12.1209Z" fill="white"/>
<path d="M13.2175 10.7185H13.1868V10.75V11.3358L13.0042 10.7411L12.9977 10.7185H12.9743H12.6463H12.6147V10.75V12.6843V12.7159H12.6463H12.9775H13.0082V12.6843V12.0598L13.1908 12.6932L13.1973 12.7159H13.2207H13.552H13.5835V12.6843V10.75V10.7185H13.552H13.2175Z" fill="white"/>
<path d="M14.2427 10.7185H14.212V10.75V12.6843V12.7159H14.2427H14.5748H14.6055V12.6843V10.75V10.7185H14.5748H14.2427Z" fill="white"/>
<path d="M15.3401 10.7185H15.3086V10.75V11.3358L15.1268 10.7411L15.1196 10.7185H15.0969H14.7681H14.7366V10.75V12.6843V12.7159H14.7681H15.0994H15.1309V12.6843V12.0598L15.3127 12.6932L15.3191 12.7159H15.3426H15.6746H15.7054V12.6843V10.75V10.7185H15.6746H15.3401Z" fill="white"/>
<path d="M16.5746 10.7185H15.8725H15.8409V10.75V12.6843V12.7159H15.8725H16.5746C16.7023 12.7159 16.8105 12.6076 16.8105 12.4799V10.9544C16.8105 10.8244 16.7047 10.7185 16.5746 10.7185ZM16.4138 11.1128V12.3191H16.2352V11.1128H16.4138Z" fill="white"/>
<path d="M16.9948 10.7185H16.9641V10.75V12.6843V12.7159H16.9948H17.3261H17.3576V12.6843V10.75V10.7185H17.3261H16.9948Z" fill="white"/>
<path d="M18.2213 10.7185H17.7244C17.5943 10.7185 17.4893 10.8244 17.4893 10.9544V12.6843V12.7159H17.5208H17.8529H17.8844V12.6843V12.1406H18.0621V12.6843V12.7159H18.0936H18.4281H18.4597V12.6843V11.3382V11.0288V10.9544C18.4572 10.8244 18.3514 10.7185 18.2213 10.7185ZM18.0605 11.1128V11.7471H17.8827V11.1128H18.0605Z" fill="white"/>
</svg>
