<?phpxml version="1.0" encoding="UTF-8"?>
<svg width="48px" height="48px" viewBox="0 0 48 48" version="1.1" xmlns="http://www.w3.org/2000/svg" xmlns:xlink="http://www.w3.org/1999/xlink">
    <title> Icons / Line / End-Mid-Clamp</title>
    <g id="-Icons-/-Line-/-End-Mid-Clamp" stroke="none" stroke-width="1" fill="none" fill-rule="evenodd" stroke-linecap="round" stroke-linejoin="round">
        <g id="Group-21" transform="translate(7.000000, 6.000000)" stroke="#111111">
            <polyline id="Stroke-1" points="17.6101561 7.15964012 6.24337956 1.91909492 0.708548877 3.10472582 10.0973874 8.64238617 17.6101561 7.15964012 17.6101561 23.4698467 26.8037475 21.7890239 26.8037475 6.27112436 33.5242091 5.67972374 22.256471 0.535387246 15.4341413 0.835332058 15.4341413 5.37977893"></polyline>
            <polyline id="Stroke-3" points="17.6101561 23.4689978 7.03285694 16.4514211 7.03285694 7.15879122"></polyline>
            <line x1="26.8023327" y1="6.26970952" x2="15.4355562" y2="0.833917224" id="Stroke-4"></line>
            <polyline id="Stroke-6" points="19.0360258 23.723102 22.8164623 23.024174 30.9630766 28.1968071 10.5922964 32.7610617 3.32004951 26.6348304 14.6670183 24.532387"></polyline>
            <path d="M17.6625049,15.3501143 C19.2527784,15.3501143 20.3789862,14.857752 20.3789862,14.2465437 C20.3789862,13.6409948 19.2527784,13.1458029 17.6625049,13.1458029" id="Stroke-8"></path>
            <path d="M20.3789862,14.2476756 C20.3789862,14.2476756 20.3761566,18.3506942 20.3789862,18.4440733 C20.4072829,18.9845399 19.2527784,19.5476438 17.6625049,19.5476438" id="Stroke-10"></path>
            <line x1="26.8023327" y1="21.7887409" x2="22.4785999" y2="19.1430013" id="Stroke-12"></line>
            <path d="M14.8786775,21.8357134 L14.8786775,27.5516428 C14.8786775,28.0723018 15.8407646,28.4939223 17.0320549,28.4939223 C18.2205155,28.4939223 19.1826026,28.0723018 19.1826026,27.5516428 L19.1826026,23.5165362" id="Stroke-14"></path>
            <polyline id="Stroke-16" points="24.8320348 29.7720833 24.8320348 32.7969985 14.8093506 34.8145518 14.8093506 31.854719"></polyline>
            <line x1="12.5920228" y1="32.9305588" x2="14.8104825" y2="34.8151177" id="Stroke-18"></line>
        </g>
    </g>
</svg>