<?phpxml version="1.0" encoding="UTF-8"?>
<svg width="48px" height="48px" viewBox="0 0 48 48" version="1.1" xmlns="http://www.w3.org/2000/svg" xmlns:xlink="http://www.w3.org/1999/xlink">
    <title> Icons / Line / Glue</title>
    <g id="-Icons-/-Line-/-Glue" stroke="none" stroke-width="1" fill="none" fill-rule="evenodd" stroke-linecap="round">
        <g id="Group-17" transform="translate(27.500000, 24.000000) rotate(-30.000000) translate(-27.500000, -24.000000) translate(3.500000, 14.500000)" stroke="#111111">
            <path d="M34.4047836,9.49180517 L35.3802092,9.49180517 C35.8404881,9.49180517 36.2093209,9.12297238 36.2093209,8.66574164 L36.2093209,1.58780992 C36.2093209,1.13362739 35.8404881,0.761746399 35.3802092,0.761746399 L34.4047836,0.761746399 C33.9506011,0.761746399 33.5787201,1.13362739 33.5787201,1.58780992 L33.5787201,8.66574164 C33.5787201,9.12297238 33.9506011,9.49180517 34.4047836,9.49180517 Z" id="Stroke-1"></path>
            <path d="M18.3123956,9.49180517 L19.2908694,9.49180517 C19.7481001,9.49180517 20.1169329,9.12297238 20.1169329,8.66574164 L20.1169329,1.58780992 C20.1169329,1.13362739 19.7481001,0.761746399 19.2908694,0.761746399 L18.3123956,0.761746399 C17.8582131,0.761746399 17.4863321,1.13362739 17.4863321,1.58780992 L17.4863321,8.66574164 C17.4863321,9.12297238 17.8582131,9.49180517 18.3123956,9.49180517 Z" id="Stroke-3"></path>
            <line x1="33.5802442" y1="1.76125278" x2="20.1163233" y2="1.76125278" id="Stroke-5"></line>
            <line x1="33.5802442" y1="8.49168915" x2="20.1163233" y2="8.49168915" id="Stroke-7"></line>
            <path d="M36.7208097,3.55024422 L46.9475371,3.9099324 C47.2615022,3.9099324 47.5145032,4.1629334 47.5145032,4.4768985 L47.5297442,5.65350559 C47.5297442,5.96747069 47.2767432,6.22047169 46.9627781,6.22047169 L36.7208097,6.70513627" id="Stroke-9" stroke-linejoin="round"></path>
            <polyline id="Stroke-11" stroke-linejoin="round" points="17.3954956 1.82678918 11.6160991 1.82678918 9.89081518 3.54597673 9.89081518 9.09675781 7.48882974 18.576675 11.6160991 18.576675 14.545424 9.13638448"></polyline>
            <line x1="9.82863181" y1="5.18438685" x2="3.23841286" y2="5.18438685" id="Stroke-13" stroke-linejoin="round"></line>
            <path d="M3.22926825,5.25297146 L3.22926825,6.82889339 C3.22926825,7.50864307 2.67449496,8.06036816 1.99474527,8.06036816 C1.31499558,8.06036816 0.760222296,7.50864307 0.760222296,6.82889339 L0.760222296,1.55549895" id="Stroke-15" stroke-linejoin="round"></path>
        </g>
    </g>
</svg>