<svg width="94" height="106" viewBox="0 0 94 106" fill="none" xmlns="http://www.w3.org/2000/svg">
<g filter="url(#filter0_d)">
<path fill-rule="evenodd" clip-rule="evenodd" d="M75.9268 6.70859C57.0585 -5.04882 31.1974 -0.975872 17.8372 15.981C4.58307 32.8034 8.56115 56.0524 26.5888 68.4832L18.0732 79.2914C36.9417 91.0488 62.8028 86.9759 76.1628 70.019C89.4169 53.1966 85.4389 29.9478 67.4112 17.5168L75.9268 6.70859Z" fill="#FF5345"/>
</g>
<path d="M38.7645 40V34.3984H40.1669L42.3114 37.9219H42.3583V34.3984H43.5809V40H42.1747L40.0379 36.4805H39.9911V40H38.7645ZM44.1702 37.1992C44.1702 36.793 44.2457 36.4115 44.3968 36.0547C44.5478 35.6953 44.7535 35.3867 45.014 35.1289C45.277 34.8711 45.5921 34.668 45.9593 34.5195C46.3291 34.3711 46.7249 34.2969 47.1468 34.2969C47.566 34.2969 47.9606 34.3724 48.3304 34.5234C48.7001 34.6719 49.0153 34.875 49.2757 35.1328C49.5387 35.3906 49.7457 35.6992 49.8968 36.0586C50.0478 36.4154 50.1233 36.7956 50.1233 37.1992C50.1233 37.7383 49.9944 38.2305 49.7366 38.6758C49.4788 39.1185 49.122 39.4674 48.6663 39.7227C48.2132 39.9779 47.7067 40.1055 47.1468 40.1055C46.7249 40.1055 46.3291 40.0312 45.9593 39.8828C45.5895 39.7344 45.2731 39.5326 45.01 39.2773C44.7496 39.0195 44.5439 38.7109 44.3929 38.3516C44.2444 37.9922 44.1702 37.6081 44.1702 37.1992ZM45.4827 37.1992C45.4827 37.6862 45.6376 38.0898 45.9475 38.4102C46.26 38.7279 46.6598 38.8867 47.1468 38.8867C47.6285 38.8867 48.0244 38.7279 48.3343 38.4102C48.6468 38.0898 48.803 37.6862 48.803 37.1992C48.803 36.7174 48.6468 36.3164 48.3343 35.9961C48.0244 35.6732 47.6285 35.5117 47.1468 35.5117C46.6624 35.5117 46.264 35.6732 45.9515 35.9961C45.639 36.3164 45.4827 36.7174 45.4827 37.1992ZM50.7009 40V34.3984H52.1032L54.2478 37.9219H54.2946V34.3984H55.5173V40H54.111L51.9743 36.4805H51.9275V40H50.7009ZM21.6551 52V46.3984H23.8231C24.383 46.3984 24.8478 46.5742 25.2176 46.9258C25.59 47.2747 25.7762 47.724 25.7762 48.2734C25.7762 48.6328 25.6877 48.957 25.5106 49.2461C25.3361 49.5352 25.1004 49.7604 24.8036 49.9219C24.5067 50.0807 24.1799 50.1602 23.8231 50.1602H22.9208V52H21.6551ZM22.9208 49.0898H23.6981C23.9273 49.0898 24.1161 49.0143 24.2645 48.8633C24.4129 48.7122 24.4872 48.5156 24.4872 48.2734C24.4872 48.0339 24.4129 47.8424 24.2645 47.6992C24.1187 47.5534 23.9299 47.4805 23.6981 47.4805H22.9208V49.0898ZM26.2522 52V46.3984H29.7991V47.4805H27.5179V48.6406H29.4632V49.7188H27.5179V50.9102H29.885V52H26.2522ZM30.4587 52V46.3984H31.861L34.0056 49.9219H34.0525V46.3984H35.2751V52H33.8689L31.7321 48.4805H31.6853V52H30.4587ZM36.0949 52V46.3984H39.6417V47.4805H37.3605V48.6406H39.3058V49.7188H37.3605V50.9102H39.7277V52H36.0949ZM39.9654 47.4961V46.3984H44.3677V47.4961H42.7974V52H41.5279V47.4961H39.9654ZM44.8438 52V46.3984H47.0352C47.6107 46.3984 48.0846 46.5703 48.457 46.9141C48.832 47.2578 49.0195 47.7018 49.0195 48.2461C49.0195 48.6107 48.9271 48.9362 48.7422 49.2227C48.5599 49.5091 48.3216 49.7279 48.0273 49.8789L49.2227 52H47.8125L46.8594 50.1289H46.1094V52H44.8438ZM46.1094 49.0469H46.9258C47.1628 49.0469 47.3555 48.9766 47.5039 48.8359C47.6523 48.6953 47.7266 48.4987 47.7266 48.2461C47.7266 48.0143 47.6523 47.8294 47.5039 47.6914C47.3555 47.5508 47.1576 47.4805 46.9102 47.4805H46.1094V49.0469ZM49.2924 52L51.1948 46.3984H52.8119L54.7377 52H53.394L53.058 51.0078H50.9135L50.5854 52H49.2924ZM51.2573 49.8789H52.7143L52.0268 47.793H51.9565L51.2573 49.8789ZM54.3114 47.4961V46.3984H58.7137V47.4961H57.1434V52H55.8739V47.4961H54.3114ZM59.1897 52V46.3984H60.4554V52H59.1897ZM60.9939 49.1992C60.9939 48.793 61.0694 48.4115 61.2204 48.0547C61.3715 47.6953 61.5772 47.3867 61.8376 47.1289C62.1006 46.8711 62.4157 46.668 62.7829 46.5195C63.1527 46.3711 63.5485 46.2969 63.9704 46.2969C64.3897 46.2969 64.7842 46.3724 65.154 46.5234C65.5238 46.6719 65.8389 46.875 66.0993 47.1328C66.3623 47.3906 66.5694 47.6992 66.7204 48.0586C66.8715 48.4154 66.947 48.7956 66.947 49.1992C66.947 49.7383 66.8181 50.2305 66.5603 50.6758C66.3025 51.1185 65.9457 51.4674 65.49 51.7227C65.0368 51.9779 64.5303 52.1055 63.9704 52.1055C63.5485 52.1055 63.1527 52.0312 62.7829 51.8828C62.4131 51.7344 62.0967 51.5326 61.8337 51.2773C61.5733 51.0195 61.3676 50.7109 61.2165 50.3516C61.0681 49.9922 60.9939 49.6081 60.9939 49.1992ZM62.3064 49.1992C62.3064 49.6862 62.4613 50.0898 62.7712 50.4102C63.0837 50.7279 63.4834 50.8867 63.9704 50.8867C64.4522 50.8867 64.848 50.7279 65.1579 50.4102C65.4704 50.0898 65.6267 49.6862 65.6267 49.1992C65.6267 48.7174 65.4704 48.3164 65.1579 47.9961C64.848 47.6732 64.4522 47.5117 63.9704 47.5117C63.486 47.5117 63.0876 47.6732 62.7751 47.9961C62.4626 48.3164 62.3064 48.7174 62.3064 49.1992ZM67.5246 52V46.3984H68.9269L71.0714 49.9219H71.1183V46.3984H72.341V52H70.9347L68.798 48.4805H68.7511V52H67.5246Z" fill="white"/>
<defs>
<filter id="filter0_d" x="0" y="0" width="94" height="106" filterUnits="userSpaceOnUse" color-interpolation-filters="sRGB">
<feFlood flood-opacity="0" result="BackgroundImageFix"/>
<feColorMatrix in="SourceAlpha" type="matrix" values="0 0 0 0 0 0 0 0 0 0 0 0 0 0 0 0 0 0 127 0"/>
<feOffset dy="10"/>
<feGaussianBlur stdDeviation="5"/>
<feColorMatrix type="matrix" values="0 0 0 0 0 0 0 0 0 0 0 0 0 0 0 0 0 0 0.17 0"/>
<feBlend mode="normal" in2="BackgroundImageFix" result="effect1_dropShadow"/>
<feBlend mode="normal" in="SourceGraphic" in2="effect1_dropShadow" result="shape"/>
</filter>
</defs>
</svg>
