<?phpxml version="1.0" encoding="UTF-8"?>
<svg width="48px" height="48px" viewBox="0 0 48 48" version="1.1" xmlns="http://www.w3.org/2000/svg" xmlns:xlink="http://www.w3.org/1999/xlink">
    <title> Icons / Line / Raymond-Clip</title>
    <g id="-Icons-/-Line-/-Raymond-Clip" stroke="none" stroke-width="1" fill="none" fill-rule="evenodd" stroke-linecap="round" stroke-linejoin="round">
        <g id="Group-13" transform="translate(8.000000, 4.500000)" stroke="#111111">
            <path d="M21.0886745,30.9087357 L25.5452273,33.6374252 C26.1664298,34.0193497 26.9785946,33.8813047 27.4433461,33.3153202 L29.4634046,30.8558185 C29.6497653,30.6280442 29.7648028,30.3519542 29.7901111,30.059759 L31.5294781,11.1544962 C31.6376133,9.98571517 30.3975091,9.17124967 29.3690738,9.73263267 L19.1284355,15.3188537 C18.6567818,15.5742369 18.3645865,16.0688982 18.3645865,16.6049729 L18.3645865,37.1437682 C18.3645865,38.1054817 19.2756835,38.8072105 20.2051865,38.5610302 L23.5159658,37.6913467 L19.988916,35.1145067" id="Stroke-1"></path>
            <path d="M18.8215155,38.2267313 L3.04067121,28.5267692 C2.61733321,28.2368747 2.34584471,27.7721232 2.30213046,27.259056 L0.581169451,7.35296694 C0.516748451,6.61212544 0.937785702,5.91499819 1.6188077,5.62510369 L13.2053847,0.710701677 C13.6425272,0.524340926 14.1394892,0.528942426 14.574331,0.724506177 L30.1573108,9.50186745" id="Stroke-3"></path>
            <line x1="29.750078" y1="30.5088654" x2="20.6828222" y2="25.0514864" id="Stroke-5"></line>
            <line x1="18.3655068" y1="15.7336789" x2="0.847596302" y2="6.31670914" id="Stroke-7"></line>
            <path d="M15.3301274,33.6408763 L15.4452696,28.5309106 C15.4497664,28.2019033 15.3025184,27.8867006 15.0494359,27.6773323 L5.85793959,20.1354738 C5.14930859,19.5533841 4.08636208,20.0572483 4.08636208,20.9729468 L4.58102334,26.9065811 L7.06353259,23.6809296" id="Stroke-9"></path>
            <path d="M5.60117589,6.01393044 L15.8257089,10.9812497 C16.3755882,11.2481367 17.0128959,11.2458359 17.5581737,10.9789489 L21.9157942,8.84615369 C22.3851472,8.61837944 22.3874479,7.95116194 21.9180949,7.71648544 L12.9083579,3.25303043 L15.2390177,7.91434994" id="Stroke-11"></path>
        </g>
    </g>
</svg>