<?phpxml version="1.0" encoding="UTF-8"?>
<svg width="48px" height="48px" viewBox="0 0 48 48" version="1.1" xmlns="http://www.w3.org/2000/svg" xmlns:xlink="http://www.w3.org/1999/xlink">
    <title> Icons / Line / Rivet</title>
    <g id="-Icons-/-Line-/-Rivet" stroke="none" stroke-width="1" fill="none" fill-rule="evenodd">
        <g id="Rivet" transform="translate(19.500000, 6.000000)" stroke="#111111">
            <path d="M1.93957429,24 L6.48247615,24 L6.48247615,33.7285491 C6.48247615,34.9830368 5.46551293,36 4.21102522,36 C2.95653751,36 1.93957429,34.9830368 1.93957429,33.7285491 L1.93957429,24 L1.93957429,24 Z" id="Rectangle"></path>
            <path d="M0,21.3402483 L8.42205044,21.3402483 C8.42205044,22.8091886 7.23123905,24 5.76229876,24 L2.65975169,24 C1.19081139,24 1.79893303e-16,22.8091886 0,21.3402483 L0,21.3402483 L0,21.3402483 Z" id="Rectangle-Copy" transform="translate(4.211025, 22.670124) rotate(-180.000000) translate(-4.211025, -22.670124) "></path>
            <path d="M2.59237046,0 L5.82967998,0 L5.82967998,18.6754485 C5.82967998,19.143733 5.6653594,19.5971705 5.36535563,19.9567371 L4.21102522,21.3402483 L4.21102522,21.3402483 L3.05669482,19.9567371 C2.75669104,19.5971705 2.59237046,19.143733 2.59237046,18.6754485 L2.59237046,0 L2.59237046,0 Z" id="Rectangle-Copy-2" transform="translate(4.211025, 10.670124) scale(-1, 1) rotate(180.000000) translate(-4.211025, -10.670124) "></path>
        </g>
    </g>
</svg>