<?phpxml version="1.0" encoding="UTF-8"?>
<svg width="48px" height="48px" viewBox="0 0 48 48" version="1.1" xmlns="http://www.w3.org/2000/svg" xmlns:xlink="http://www.w3.org/1999/xlink">
    <title> Icons / Line / Screw 2</title>
    <g id="-Icons-/-Line-/-Screw-2" stroke="none" stroke-width="1" fill="none" fill-rule="evenodd">
        <g id="Group-33" transform="translate(9.221537, 6.000000)" stroke="#111111">
            <path d="M20.3783471,7.93489172 L20.3783471,3.02474846 C20.3783471,1.70201599 19.303627,0.627295854 17.9783894,0.627295854 L9.73636316,0.627295854 C8.41363069,0.627295854 7.33891056,1.70201599 7.33891056,3.02474846 L7.33891056,7.93489172" id="Stroke-1"></path>
            <polyline id="Stroke-3" stroke-linecap="round" points="6.00290066 8.01555836 13.8415937 7.72996839 21.7905144 8.01305318"></polyline>
            <path d="M12.7821551,0.627295854 C11.8777869,0.627295854 11.1412654,1.70201599 11.1412654,3.02474846 L11.1412654,7.93489172" id="Stroke-5"></path>
            <path d="M9.50263032,0.627295854 C10.4069985,0.627295854 11.14352,1.70201599 11.14352,3.02474846" id="Stroke-7"></path>
            <path d="M18.2146274,0.627295854 C17.3102591,0.627295854 16.5737377,1.70201599 16.5737377,3.02474846 L16.5737377,7.93489172" id="Stroke-9"></path>
            <path d="M14.9351026,0.627295854 C15.8394708,0.627295854 16.5759923,1.70201599 16.5759923,3.02474846" id="Stroke-11"></path>
            <line x1="18.059056" y1="20.7395934" x2="9.34104652" y2="19.9780201" id="Stroke-13" stroke-linecap="round"></line>
            <line x1="17.4756007" y1="22.7016465" x2="10.0828289" y2="22.0553114" id="Stroke-15" stroke-linecap="round"></line>
            <line x1="17.043959" y1="24.6759751" x2="10.4753898" y2="24.10229" id="Stroke-17" stroke-linecap="round"></line>
            <line x1="16.6671807" y1="26.6553139" x2="10.9403503" y2="26.1542789" id="Stroke-19" stroke-linecap="round"></line>
            <line x1="16.2438061" y1="28.629392" x2="11.3511991" y2="28.2035122" id="Stroke-21" stroke-linecap="round"></line>
            <line x1="15.8156717" y1="30.6428012" x2="11.7848449" y2="30.2870663" id="Stroke-23" stroke-linecap="round"></line>
            <line x1="15.363237" y1="32.5682788" x2="12.2042112" y2="32.2751733" id="Stroke-25" stroke-linecap="round"></line>
            <path d="M9.95406288,18.4350828 L13.4988857,35.4652633 C13.5965875,35.9362363 14.1201691,35.9362363 14.2203761,35.4652633 L17.7626938,18.4350828" id="Stroke-27" stroke-linecap="round"></path>
            <path d="M24.3783603,13.4051921 L24.3783603,16.7746527 C24.3783603,17.3333068 23.8923563,17.7892486 23.2936194,17.7892486 L4.42464032,17.7892486 C3.82339829,17.7892486 3.33989949,17.3333068 3.33989949,16.7746527 L3.33989949,13.4051921" id="Stroke-29" stroke-linecap="round"></path>
            <path d="M26.5691359,10.2762284 L26.4939807,10.2712181 C18.0615612,9.48459306 9.58154334,9.48709823 1.14912383,10.2762284 C0.861028694,10.2762284 0.628047406,10.5342614 0.628047406,10.8474083 L0.628047406,12.65865 C0.628047406,12.9717968 0.861028694,13.2273247 1.14912383,13.2273247 C9.60158474,12.7313 18.0690767,12.7313 26.5215376,13.2248195 L26.5691359,13.2273247 C26.8572311,13.2273247 27.0902123,12.9717968 27.0902123,12.65865 L27.0902123,10.8474083 C27.0902123,10.5342614 26.8572311,10.2762284 26.5691359,10.2762284 Z" id="Stroke-31" stroke-linecap="round"></path>
        </g>
    </g>
</svg>