<?phpxml version="1.0" encoding="UTF-8"?>
<svg width="48px" height="48px" viewBox="0 0 48 48" version="1.1" xmlns="http://www.w3.org/2000/svg" xmlns:xlink="http://www.w3.org/1999/xlink">
    <title> Icons / Line / Screw 1</title>
    <g id="-Icons-/-Line-/-Screw-1" stroke="none" stroke-width="1" fill="none" fill-rule="evenodd">
        <g id="Group-21" transform="translate(14.000000, 6.000000)" stroke="#111111">
            <path d="M6.40287006,13.1278942 L6.40287006,32.2130817 C6.40287006,33.0358994 6.83752236,33.7982842 7.54877159,34.2143418 L10.1125229,35.7251653 L12.6762742,34.2143418 C13.385199,33.7982842 13.8198513,33.0358994 13.8198513,32.2130817 L13.8198513,13.7833591 M13.8198513,14.3807155 L13.8198513,11.7030714 L6.40287006,11.7030714 L6.40287006,12.9187032" id="Stroke-1" stroke-linecap="round"></path>
            <line x1="14.6549881" y1="19.6969548" x2="5.56912791" y2="17.7166138" id="Stroke-3" stroke-linecap="round"></line>
            <line x1="14.6549881" y1="22.6637473" x2="5.56912791" y2="20.6857307" id="Stroke-5" stroke-linecap="round"></line>
            <line x1="14.6549881" y1="16.7280704" x2="5.56912791" y2="14.7477294" id="Stroke-7" stroke-linecap="round"></line>
            <path d="M17.4163086,7.36700789 L2.80780739,7.36700789 C1.57822949,7.36700789 0.581085967,8.36415142 0.581085967,9.59372932 L0.581085967,11.2161213 C0.581085967,11.4834209 0.797249947,11.6949362 1.06222515,11.6949362 L19.1618909,11.6949362 C19.4268661,11.6949362 19.64303,11.4834209 19.64303,11.2161213 L19.64303,9.59372932 C19.64303,8.36415142 18.6458865,7.36700789 17.4163086,7.36700789 Z" id="Stroke-9"></path>
            <path d="M13.9353712,0.58015623 L6.28827991,0.58015623 C5.058702,0.58015623 4.06155848,1.57729975 4.06155848,2.80687766 L4.06155848,7.3602673 L16.1620927,7.3602673 L16.1620927,2.80687766 C16.1620927,1.57729975 15.1649491,0.58015623 13.9353712,0.58015623 Z" id="Stroke-11"></path>
            <path d="M9.11305501,0.58015623 C8.27396687,0.58015623 7.59060978,1.57729975 7.59060978,2.80687766 L7.59060978,7.3602673" id="Stroke-13"></path>
            <path d="M6.07025645,0.58015623 C6.90934459,0.58015623 7.59270168,1.57729975 7.59270168,2.80687766" id="Stroke-15"></path>
            <path d="M14.1533947,0.58015623 C13.3143066,0.58015623 12.6309495,1.57729975 12.6309495,2.80687766 L12.6309495,7.3602673" id="Stroke-17"></path>
            <path d="M11.1105961,0.58015623 C11.9496843,0.58015623 12.6330414,1.57729975 12.6330414,2.80687766" id="Stroke-19"></path>
        </g>
    </g>
</svg>