<?phpxml version="1.0" standalone="no"?>
<!DOCTYPE svg PUBLIC "-//W3C//DTD SVG 20010904//EN"
 "http://www.w3.org/TR/2001/REC-SVG-20010904/DTD/svg10.dtd">
<svg version="1.0" xmlns="http://www.w3.org/2000/svg"
 width="48.000000pt" height="48.000000pt" viewBox="0 0 48.000000 48.000000"
 preserveAspectRatio="xMidYMid meet">
<metadata>
Created by potrace 1.16, written by Peter Selinger 2001-2019
</metadata>
<g transform="translate(0.000000,48.000000) scale(0.003750,-0.003750)"
fill="#000000" stroke="none">
<path d="M10475 9104 c-247 -80 -497 -160 -555 -179 -211 -68 -1165 -375
-1181 -380 -13 -4 -24 11 -47 67 -17 40 -45 103 -61 140 -17 37 -31 71 -31 76
0 5 28 17 61 27 56 17 64 23 79 60 28 63 33 85 20 85 -7 0 -47 32 -89 71 -95
90 -173 149 -194 149 -9 0 -175 -48 -369 -106 -371 -111 -730 -218 -1188 -354
-151 -45 -363 -109 -471 -141 -108 -32 -207 -60 -220 -62 -22 -4 -24 -10 -27
-63 l-3 -59 46 -41 47 -41 -16 -127 -15 -127 80 -154 c44 -84 76 -155 72 -158
-4 -3 -109 -37 -233 -77 -124 -39 -439 -141 -700 -225 -397 -129 -1107 -357
-1475 -475 -49 -16 -398 -129 -775 -250 -377 -122 -719 -232 -760 -245 -141
-44 -985 -316 -1291 -416 -171 -55 -313 -97 -323 -93 -14 5 -16 -2 -17 -47 0
-30 -15 -184 -32 -344 l-32 -289 -194 -63 c-107 -34 -198 -60 -203 -57 -4 3
-8 -19 -8 -49 l0 -54 598 -470 c1244 -978 1357 -1068 1371 -1081 9 -8 17 -9
25 -3 6 5 122 53 256 106 365 144 629 249 985 390 573 228 896 355 1110 440
116 46 343 136 505 200 323 128 709 281 1035 410 116 46 332 131 480 190 149
59 387 153 530 210 143 57 393 156 555 220 162 64 378 150 480 190 213 84 482
190 1110 439 245 98 580 230 745 296 165 65 467 184 670 265 635 252 890 353
1190 471 440 174 415 162 415 196 0 15 5 28 11 28 8 0 8 5 -1 15 -7 8 -18 15
-26 15 -12 0 -552 224 -561 233 -2 3 5 93 17 201 11 108 20 216 20 240 0 65
-47 328 -76 426 -74 248 -76 252 -126 230 -13 -5 -104 -38 -203 -73 -99 -35
-271 -97 -382 -136 -112 -40 -208 -69 -214 -65 -18 10 -4 150 21 216 26 71 85
161 138 214 44 44 53 60 26 50 -10 -4 -38 11 -74 39 -32 25 -62 45 -67 45 -4
-1 -210 -66 -458 -146z m496 84 c22 -17 36 -35 32 -39 -5 -4 -60 -25 -123 -47
-63 -22 -194 -68 -290 -102 -96 -34 -269 -95 -385 -135 -115 -40 -353 -123
-528 -184 -175 -61 -325 -111 -334 -111 -8 0 -30 12 -49 27 -42 32 -36 33
-331 -61 -172 -54 -204 -61 -214 -49 -7 8 -8 17 -3 23 5 4 243 83 529 175 286
91 545 175 575 185 30 10 240 78 465 150 226 72 455 146 510 165 55 18 101 34
103 34 2 1 21 -13 43 -31z m-2420 -51 c99 -83 165 -144 159 -150 -5 -6 -199
-65 -610 -187 -107 -32 -406 -122 -665 -200 -258 -78 -486 -147 -505 -152 -19
-5 -124 -37 -233 -69 l-197 -60 -120 102 c-66 57 -117 106 -113 109 5 4 55 21
113 38 58 17 184 54 280 82 96 29 270 80 385 115 116 34 334 99 485 144 260
78 393 117 710 213 74 22 153 46 175 53 61 20 66 19 136 -38z m2400 -92 c-66
-94 -94 -176 -97 -284 -2 -52 -5 -96 -7 -98 -4 -3 -397 -143 -941 -334 -93
-32 -174 -59 -180 -59 -16 1 -341 254 -341 265 0 6 144 60 320 122 176 61 532
186 790 277 259 91 475 165 482 165 7 1 -5 -24 -26 -54z m-2231 -101 c0 -36
-84 -69 -450 -179 -41 -12 -336 -104 -655 -205 -319 -100 -602 -189 -630 -197
-55 -16 -453 -143 -472 -150 -8 -3 -13 4 -13 20 0 58 -27 46 380 167 323 96
1425 427 1580 475 258 79 260 79 260 69z m3040 -146 c23 -73 43 -138 45 -145
5 -14 117 26 -1231 -437 -106 -36 -196 -66 -202 -66 -11 0 53 216 69 237 7 7
-1 21 -23 42 -18 16 -30 32 -28 34 3 3 91 35 195 72 105 36 215 76 245 87 30
11 98 35 150 53 52 19 235 83 405 144 171 60 315 110 322 111 7 0 30 -56 53
-132z m-3113 -157 c41 -95 71 -177 66 -181 -4 -4 -141 -49 -303 -100 -162 -51
-441 -138 -620 -195 -179 -57 -399 -126 -490 -155 -91 -28 -255 -80 -365 -115
-263 -83 -400 -125 -412 -125 -10 0 -33 46 -121 250 -50 114 -50 116 -41 180
5 36 11 69 12 75 2 5 25 -18 52 -53 31 -40 52 -59 59 -53 6 5 108 39 226 76
206 64 511 159 910 285 102 32 318 99 480 150 162 50 327 102 365 115 39 13
78 23 88 22 14 -2 38 -46 94 -176z m3192 -176 c11 -67 21 -126 21 -132 0 -6
-17 -17 -37 -23 -21 -7 -85 -30 -143 -51 -585 -211 -917 -332 -948 -344 -20
-8 -118 -43 -217 -79 -99 -36 -335 -122 -525 -191 -190 -70 -374 -137 -410
-150 -36 -13 -195 -71 -355 -130 -159 -59 -319 -117 -355 -130 -36 -13 -168
-61 -295 -108 -126 -46 -367 -135 -535 -196 -168 -62 -323 -119 -345 -127 -22
-9 -119 -44 -215 -79 -197 -72 -339 -124 -680 -250 -129 -48 -264 -97 -300
-110 -36 -13 -171 -62 -300 -110 -129 -47 -282 -104 -340 -125 -58 -21 -208
-77 -335 -123 -753 -276 -871 -320 -1210 -445 -104 -39 -345 -128 -535 -197
-190 -70 -385 -142 -435 -160 -49 -19 -349 -129 -665 -245 -316 -116 -597
-220 -625 -230 -112 -43 -248 -90 -252 -86 -5 5 -113 378 -113 393 0 6 39 25
87 41 49 17 153 54 233 82 161 58 892 318 1237 441 243 86 546 194 900 320
261 93 422 149 788 278 143 51 296 105 340 121 44 16 181 65 305 109 124 44
374 132 555 196 182 64 569 200 860 302 292 101 567 198 613 214 46 16 91 29
100 29 9 0 66 -41 126 -91 l109 -92 71 26 c39 14 172 62 296 107 124 45 261
95 305 110 44 15 188 67 320 115 132 48 332 120 445 160 113 41 331 119 485
175 154 56 307 111 340 123 57 21 61 25 74 67 7 25 26 88 43 140 l29 96 502
173 c276 95 603 208 727 251 152 52 227 74 231 66 4 -6 16 -65 28 -131z
m-2373 -42 c118 -91 211 -170 207 -174 -7 -6 -114 -44 -688 -239 -110 -38
-333 -114 -495 -170 -162 -56 -330 -112 -373 -126 -43 -14 -80 -31 -81 -37 -5
-16 -40 -175 -82 -371 -19 -88 -36 -162 -39 -164 -2 -2 -64 45 -137 106 -539
446 -753 625 -756 632 -3 9 67 32 663 219 160 51 337 107 395 125 58 19 245
78 415 131 171 54 405 128 520 165 116 37 216 68 223 69 7 1 109 -74 228 -166z
m-3106 -27 c95 -85 114 -107 112 -127 -7 -44 -13 -40 -83 52 -15 18 -29 32
-32 29 -3 -3 -12 -53 -21 -112 l-16 -108 86 -196 85 -195 -11 -57 c-6 -31 -13
-67 -15 -79 -4 -18 18 -40 130 -129 75 -58 139 -103 143 -99 4 3 14 36 22 73
l15 66 155 44 c85 25 156 46 158 47 2 2 9 26 17 54 l13 51 -51 46 c-49 44 -52
45 -61 25 -10 -23 -36 -29 -36 -7 0 30 13 76 21 76 9 0 93 -68 559 -455 303
-252 382 -316 385 -313 3 4 81 352 104 462 16 77 34 105 47 72 3 -9 -5 -58
-19 -109 -14 -50 -47 -171 -72 -267 -26 -96 -48 -181 -51 -188 -5 -18 -15 -11
-302 232 -134 113 -248 206 -255 206 -7 0 -50 32 -97 72 -99 82 -128 103 -136
95 -4 -3 -9 -21 -13 -39 -6 -30 -12 -35 -66 -52 -33 -10 -105 -32 -160 -50
l-100 -31 -22 -95 c-19 -85 -38 -120 -63 -120 -4 0 -23 26 -43 59 -46 73 -103
126 -176 160 -47 22 -70 26 -142 26 -76 0 -90 -3 -127 -28 -49 -32 -97 -110
-112 -182 -6 -27 -14 -90 -18 -139 -8 -101 -26 -125 -38 -50 -9 62 9 205 35
274 44 119 132 179 262 183 l74 2 7 50 c17 134 15 145 -76 321 l-85 164 17
125 16 125 -47 48 c-28 28 -47 57 -47 70 0 12 3 22 8 22 4 -1 59 -47 122 -104z
m4013 26 c15 -16 4 -21 -186 -86 -111 -38 -380 -129 -597 -203 -1111 -379
-1330 -453 -1384 -472 -33 -12 -69 -21 -82 -21 -28 0 -42 19 -23 31 8 5 120
44 249 88 129 43 453 154 720 246 267 92 636 219 820 282 184 63 358 123 385
133 64 24 78 24 98 2z m17 -63 c0 -6 -21 -79 -46 -163 -25 -83 -57 -189 -70
-235 -14 -46 -29 -91 -34 -100 -5 -9 -84 -43 -182 -78 -197 -71 -596 -214
-773 -278 -145 -52 -303 -109 -570 -204 -110 -40 -229 -83 -265 -96 -194 -73
-462 -166 -469 -163 -4 2 4 48 20 103 15 55 49 179 75 275 27 96 53 178 59
183 5 4 51 20 100 36 50 16 263 88 475 161 212 73 417 142 455 155 103 34 908
308 1070 365 157 55 155 54 155 39z m1450 -282 c-11 -105 -23 -197 -25 -203
-2 -6 -36 -23 -77 -39 -63 -24 -89 -28 -194 -29 -120 -3 -121 -3 -166 -37 -34
-25 -47 -42 -50 -63 -3 -33 30 -19 -703 -295 -121 -46 -265 -100 -320 -122
-55 -21 -244 -92 -420 -159 -176 -66 -419 -159 -540 -205 -121 -46 -317 -120
-435 -165 -118 -44 -249 -94 -290 -110 -98 -38 -177 -68 -855 -325 -786 -298
-978 -371 -1065 -405 -41 -16 -136 -52 -210 -80 -206 -78 -337 -128 -420 -160
-41 -16 -169 -65 -285 -109 -115 -44 -619 -236 -1120 -427 -500 -190 -950
-361 -1000 -380 -49 -18 -137 -50 -194 -72 l-104 -40 -47 22 c-47 22 -51 22
-160 9 -106 -13 -114 -16 -166 -54 -49 -37 -54 -45 -54 -79 0 -32 -4 -39 -24
-44 -13 -3 -47 -21 -75 -41 -29 -19 -152 -72 -279 -120 -125 -48 -254 -97
-287 -110 -195 -76 -408 -155 -412 -152 -4 5 -53 466 -53 502 0 24 -15 18 645
260 160 58 313 114 340 125 28 10 223 83 435 160 212 78 450 165 530 195 80
29 276 101 435 160 160 59 332 122 383 141 50 18 136 50 190 69 53 20 120 45
147 55 28 11 187 70 355 131 518 190 559 205 760 279 107 39 285 105 395 145
110 40 331 121 490 180 160 59 405 149 545 200 140 51 386 141 545 200 160 59
407 149 550 202 143 52 321 117 395 145 74 27 164 60 200 73 36 13 178 64 315
115 678 249 2135 779 2290 833 55 19 102 31 103 26 2 -5 -6 -96 -18 -202z
m-4895 -256 c-4 -22 -12 -44 -18 -49 -20 -15 -417 -165 -423 -159 -12 11 18
118 34 125 41 15 407 128 410 126 2 -1 1 -21 -3 -43z m5014 -38 c62 -25 108
-49 104 -53 -4 -4 -64 -29 -133 -55 l-124 -47 -43 21 c-41 20 -43 23 -43 65 0
36 -4 46 -21 51 -11 4 -18 10 -14 13 11 11 119 51 141 51 12 1 72 -20 133 -46z
m-5532 -78 c-2 -26 -6 -47 -8 -49 -2 -2 -101 -35 -219 -73 -118 -39 -496 -163
-840 -276 -733 -241 -2187 -719 -2680 -881 -190 -63 -502 -166 -695 -229 -192
-63 -502 -165 -688 -226 -186 -61 -342 -109 -347 -106 -17 11 -62 97 -54 105
9 8 341 117 1084 355 234 75 513 165 620 200 107 35 497 161 865 279 654 210
1877 604 2580 831 193 63 358 114 369 114 16 1 18 -5 13 -44z m553 20 c32 -18
40 -18 40 0 0 20 13 19 40 -3 19 -16 22 -24 16 -55 -4 -21 -14 -38 -24 -41
-51 -15 -295 -86 -298 -86 -1 0 -8 -25 -15 -55 -7 -31 -16 -58 -19 -60 -9 -5
-202 146 -196 152 7 7 410 162 421 162 6 0 21 -6 35 -14z m5275 -65 c108 -46
111 -47 103 -56 -5 -4 -430 -173 -718 -284 -101 -39 -204 -80 -690 -270 -228
-89 -487 -191 -575 -225 -134 -52 -461 -181 -1600 -627 -55 -22 -149 -59 -210
-82 -60 -24 -191 -75 -290 -114 -99 -38 -1468 -586 -3043 -1216 -1574 -630
-2868 -1146 -2875 -1146 -13 0 -217 168 -217 178 0 4 19 15 43 24 51 21 459
180 615 241 l114 44 61 -20 c41 -13 100 -21 177 -24 162 -7 263 19 398 100
l53 32 -2 90 -2 90 519 202 c285 112 627 246 759 297 493 194 783 307 2485
971 503 196 967 377 1030 402 63 25 196 76 295 115 99 38 221 86 270 105 183
72 262 102 350 136 326 127 1014 394 1085 422 47 19 265 103 485 188 l400 155
75 -25 c141 -48 303 -31 439 48 l53 31 -4 83 -4 83 130 50 c79 30 143 49 161
47 17 -1 75 -22 130 -45z m-476 -61 c57 -56 35 -110 -63 -155 -113 -51 -281
-53 -397 -3 -53 23 -99 69 -99 99 0 19 46 80 60 80 5 0 11 -13 15 -30 15 -70
124 -115 259 -108 56 3 94 11 122 26 45 23 70 67 59 101 -9 30 9 26 44 -10z
m-4560 -19 c19 -16 33 -32 30 -34 -3 -3 -99 -37 -213 -75 l-208 -71 7 28 c3
15 9 30 13 34 7 7 230 75 280 86 15 3 28 16 34 33 5 16 13 29 16 29 4 -1 22
-14 41 -30z m3973 -60 c-4 -64 -2 -72 19 -89 13 -11 22 -21 19 -24 -3 -3 -205
-82 -450 -177 -606 -236 -3051 -1188 -3225 -1257 -77 -30 -228 -89 -335 -130
-107 -42 -238 -93 -290 -113 -52 -20 -219 -85 -370 -144 -151 -59 -313 -122
-360 -141 -110 -43 -290 -114 -410 -160 -52 -20 -169 -66 -260 -102 -91 -36
-286 -112 -435 -170 -148 -58 -322 -125 -385 -150 -63 -25 -344 -135 -624
-244 l-509 -199 -30 26 c-16 14 -47 34 -68 45 -38 19 -39 21 -39 72 0 29 -5
58 -11 64 -8 8 5 17 46 32 65 24 493 188 605 231 41 16 183 70 315 120 132 50
274 104 315 120 41 16 170 65 285 109 116 44 683 259 1260 479 578 220 1284
488 1570 597 286 108 579 220 650 247 72 27 177 67 235 89 58 22 139 53 180
69 41 16 219 84 395 150 176 67 372 141 435 165 63 25 360 137 660 250 300
114 601 228 670 255 69 26 130 49 135 49 7 1 9 -25 7 -69z m1208 51 c0 -4 -80
-40 -177 -79 -205 -82 -881 -349 -1123 -445 -91 -36 -309 -122 -485 -192 -176
-70 -414 -164 -530 -210 -115 -46 -343 -136 -505 -200 -162 -64 -412 -163
-555 -220 -530 -210 -698 -276 -1035 -410 -190 -75 -419 -166 -510 -202 -91
-36 -295 -117 -455 -180 -271 -107 -516 -205 -1030 -408 -266 -105 -705 -279
-1085 -430 -311 -124 -686 -272 -1035 -410 -115 -46 -318 -126 -450 -178 -132
-52 -395 -156 -585 -231 -295 -117 -377 -149 -458 -183 -6 -3 -12 0 -12 5 0 6
24 19 53 30 28 11 250 99 492 195 242 96 537 213 655 260 118 47 382 151 585
232 204 81 487 193 630 250 143 57 404 160 580 230 559 222 976 387 1735 688
146 58 420 167 610 242 190 75 464 184 610 242 146 58 393 156 550 218 157 62
393 156 525 208 132 52 393 156 580 230 187 74 462 183 610 242 149 59 455
180 680 270 226 89 516 204 645 255 129 51 289 115 355 141 129 52 135 54 135
40z m-6264 -73 c-67 -77 -104 -231 -92 -380 l6 -76 -87 -30 c-49 -16 -315
-107 -593 -202 -278 -94 -608 -207 -735 -250 -126 -43 -448 -152 -715 -243
-839 -286 -1424 -485 -1755 -597 -541 -183 -676 -230 -695 -240 -17 -9 -15
-18 30 -132 27 -68 57 -161 68 -206 l20 -83 -27 -11 c-26 -10 -150 -55 -351
-128 -58 -21 -113 -41 -122 -45 -22 -9 -62 70 -117 230 -69 205 -90 425 -55
593 26 128 19 122 216 186 464 152 1464 481 1553 511 55 19 384 127 730 241
347 113 682 223 745 244 63 21 392 129 730 240 338 111 761 250 940 310 179
60 329 109 333 109 5 1 -8 -18 -27 -41z m1179 2 c17 -19 17 -20 -11 -31 -68
-26 -489 -167 -492 -164 -2 2 -1 16 2 32 6 27 18 32 229 105 122 42 229 77
238 77 9 1 24 -8 34 -19z m-858 -23 c28 -7 73 -30 101 -51 52 -38 139 -154
125 -166 -10 -9 -514 -180 -530 -180 -30 0 -8 196 31 284 50 113 135 148 273
113z m1044 -127 c63 -52 131 -107 150 -121 19 -15 32 -29 29 -31 -3 -3 -93
-35 -200 -71 -107 -36 -267 -91 -355 -122 -88 -31 -299 -105 -470 -165 -170
-60 -375 -132 -455 -160 -80 -28 -233 -82 -340 -120 -107 -38 -253 -89 -325
-115 -71 -25 -218 -77 -325 -115 -107 -38 -316 -112 -465 -165 -148 -53 -358
-127 -465 -165 -107 -38 -253 -90 -325 -115 -71 -26 -173 -62 -225 -80 -52
-18 -216 -77 -365 -130 -148 -53 -344 -123 -435 -155 -329 -116 -1047 -372
-1138 -406 -51 -19 -98 -34 -105 -34 -7 0 -34 78 -67 197 -30 108 -55 199 -55
202 0 5 107 42 540 189 132 44 413 140 625 213 212 72 423 144 470 159 47 16
193 65 325 110 132 45 344 117 470 160 127 43 563 191 970 330 407 139 837
285 955 325 211 72 1031 351 1305 444 77 27 145 46 150 43 6 -4 62 -49 126
-102z m-6597 -1474 c19 -36 19 -36 -5 -113 -21 -69 -24 -97 -24 -248 0 -151 3
-183 28 -285 15 -63 48 -164 73 -225 24 -60 48 -117 51 -125 4 -10 3 -12 -4
-5 -20 19 -92 193 -118 283 -14 50 -29 119 -33 153 -9 84 -32 92 -32 12 0 -86
20 -515 26 -538 2 -11 41 -46 87 -78 l82 -58 6 53 5 53 5 -55 4 -54 264 -213
c145 -117 266 -212 268 -210 1 2 -2 51 -7 109 -9 97 -8 110 10 152 42 99 53
165 53 316 0 95 -5 175 -16 231 -19 98 -77 286 -113 368 -19 42 -22 56 -12 63
19 11 31 5 39 -23 4 -13 60 -208 123 -434 l115 -410 16 -182 c21 -254 34 -373
41 -385 4 -5 115 -100 248 -211 248 -206 324 -278 148 -140 -191 150 -459 361
-742 584 -223 176 -1072 843 -1088 855 -2 1 -2 9 0 17 2 10 79 -47 222 -165
120 -98 220 -177 222 -175 2 2 -6 119 -18 261 l-21 258 27 281 c35 365 32 354
70 283z m-109 -796 c9 -116 15 -213 13 -215 -3 -3 -351 276 -386 310 -4 4 325
112 344 114 7 1 17 -74 29 -209z m115 -32 c12 -35 40 -98 62 -141 34 -69 39
-85 36 -138 l-3 -60 -53 37 c-29 20 -54 47 -57 58 -6 31 -17 306 -12 306 2 0
15 -28 27 -62z m695 -85 c4 -32 7 -65 8 -73 2 -10 -75 -43 -262 -113 -145 -54
-265 -97 -266 -95 -2 2 -6 37 -10 78 l-7 75 249 92 c136 50 256 91 265 92 13
1 18 -11 23 -56z m12 -213 c-4 -50 -12 -110 -18 -135 -11 -43 -13 -45 -83 -71
-39 -15 -97 -37 -130 -50 -32 -13 -64 -21 -70 -17 -25 15 -206 166 -206 172 0
3 67 30 148 60 81 30 190 72 242 92 52 21 101 38 109 38 11 1 13 -15 8 -89z
m1443 -217 c36 -15 68 -32 72 -38 12 -15 9 -105 -2 -105 -6 0 -42 16 -80 35
l-70 35 0 50 c0 28 3 50 8 50 4 0 36 -12 72 -27z m-1490 -15 c-1 -7 -7 -24
-15 -38 -11 -19 -13 -46 -8 -109 l6 -85 -29 22 c-76 56 -158 128 -156 137 3 8
171 81 195 84 4 1 7 -5 7 -11z m1790 -62 l0 -64 -73 -7 c-116 -11 -121 -9
-125 49 -2 27 2 54 7 59 12 12 80 24 149 26 l42 1 0 -64z m135 -11 c120 -70
92 -184 -60 -243 -246 -96 -645 -13 -645 135 0 29 8 44 44 79 24 24 48 44 54
44 5 0 10 -16 9 -35 -1 -47 28 -84 94 -118 143 -73 403 -46 460 47 23 37 23
52 5 89 -18 33 -14 34 39 2z m-462 -45 c103 -54 113 -56 273 -44 77 6 82 8 99
36 12 22 20 27 28 19 8 -8 5 -19 -9 -38 -64 -88 -278 -106 -422 -37 -54 26
-87 69 -76 98 3 9 8 16 9 16 2 0 46 -22 98 -50z m-273 -100 l0 -80 39 -27 c21
-16 47 -33 56 -38 14 -9 -12 -22 -141 -72 -88 -34 -257 -100 -377 -147 -120
-47 -224 -86 -230 -86 -13 0 -229 175 -235 190 -1 4 93 44 210 88 117 45 312
120 433 167 121 46 226 84 233 85 8 0 12 -22 12 -80z"/>
<path d="M1670 4665 c0 -114 -14 -186 -44 -223 -21 -26 -22 -33 -15 -132 l7
-105 44 -39 c126 -112 142 -112 133 1 -29 387 -52 528 -93 576 -8 9 -19 17
-24 17 -4 0 -8 -43 -8 -95z m58 -122 c21 -162 33 -318 30 -367 l-3 -48 -50 41
c-27 23 -53 49 -57 59 -3 9 -7 50 -7 91 -1 60 4 84 24 125 15 31 28 79 32 119
3 37 9 67 13 67 4 0 12 -39 18 -87z"/>
</g>
</svg>
