<?phpxml version="1.0" encoding="UTF-8"?>
<svg width="48px" height="48px" viewBox="0 0 48 48" version="1.1" xmlns="http://www.w3.org/2000/svg" xmlns:xlink="http://www.w3.org/1999/xlink">
    <title> Icons / Line / Trapez</title>
    <g id="-Icons-/-Line-/-Trapez" stroke="none" stroke-width="1" fill="none" fill-rule="evenodd">
        <path d="M31.2626866,32.380231 L29.3896462,30.1528057 L43.880746,15.7408224 L45.7656524,17.9589528 L31.2626866,32.380231 Z M25.5235619,29.5734317 L37.3716731,17.7783687 L39.6915924,15.4852162 L42.8750446,15.4852162 L28.7090291,29.5734317 L25.5235619,29.5734317 Z M24.2615096,29.5734317 L24.1618798,29.5734317 L22.1242823,31.996711 L20.719614,31.996711 L19.2074797,30.1986157 L33.6408166,15.8443926 L35.3945251,17.9080529 L35.9790946,17.9080529 L24.2615096,29.5734317 Z M15.1954209,29.5734317 L27.0435321,17.7783687 L29.3636753,15.4852162 L32.7392228,15.4852162 L18.5729834,29.5734317 L15.1954209,29.5734317 Z M13.8023947,29.7042224 C13.7571695,29.7491472 13.724258,29.8015962 13.702541,29.8573648 L11.9036072,31.996711 L10.4991628,31.996711 L9.00426784,30.2189756 L23.3791701,15.9229556 L25.0663842,17.9080529 L25.6511776,17.9080529 L13.8023947,29.7042224 Z M5.11758585,29.5734317 L19.2856164,15.4852162 L22.5566085,15.4852162 L8.390593,29.5734317 L5.11758585,29.5734317 Z M44.0806773,14.6 L39.3208351,14.6 L36.8694941,17.0228367 L35.811627,17.0228367 L33.7527602,14.6 L28.9926942,14.6 L26.5413531,17.0228367 L25.4837099,17.0228367 L23.4243954,14.6 L18.913068,14.6 L7.61191328,25.8375981 C7.54609044,25.8590646 7.48452145,25.8960224 7.43280351,25.9486928 L3.83896599,29.5873739 C3.74806778,29.6088404 3.66321453,29.6568634 3.5989589,29.7332133 L1.12567687,32.6745653 C0.967612503,32.8626738 0.993583419,33.1415169 1.18366366,33.2977575 C1.26717359,33.3665831 1.36881839,33.4 1.46979152,33.4 C1.59830278,33.4 1.7256946,33.3457805 1.81435394,33.2404398 L4.15531862,30.4566562 C4.1627069,30.4570988 4.1696474,30.4586479 4.17725957,30.4586479 L8.04110506,30.4586479 L10.0789265,32.8819272 L12.3238435,32.8819272 L14.361441,30.4586479 L18.262004,30.4586479 L20.2993777,32.8819272 L22.5445186,32.8819272 L24.5821161,30.4586479 L28.4824552,30.4586479 L30.8216288,33.2404398 C30.9102882,33.3457805 31.03768,33.4 31.1661912,33.4 C31.1919383,33.4 31.2176853,33.3980083 31.2429846,33.3933609 C31.2664927,33.397123 31.2900009,33.4 31.3137329,33.4 C31.4285871,33.4 31.5436651,33.3566244 31.631205,33.2696519 L46.9777778,18.0091888 L44.0806773,14.6 Z" id="ico-metal-roof-default" fill="#000000"></path>
    </g>
</svg>